<svg id="Layer_1" enable-background="new 0 0 504 504" height="512" viewBox="0 0 504 504" width="512" xmlns="http://www.w3.org/2000/svg"><path d="m174.082 160.554c-3.839 0-7.229-2.772-7.881-6.685-.169-1.016-4.102-25.229.068-55.984 5.593-41.251 23.282-74.517 51.156-96.199 3.488-2.712 8.514-2.085 11.227 1.402s2.085 8.514-1.402 11.227c-59.596 46.359-45.417 136.021-45.267 136.922.813 4.876-2.947 9.317-7.901 9.317z" fill="#5ab161"/><path d="m320.184 341.35c0 83.709-65.408 151.568-146.092 151.568s-146.092-67.859-146.092-151.568c0-62.209 36.124-164.54 87.797-213 17.858-16.748 37.573-4.01 58.295-4.01 21.708 0 42.311-11.733 60.831 6.443 50.314 49.382 85.261 149.381 85.261 210.567z" fill="#69da61"/><path d="m44.622 367.769c0-40.686 17.239-112.66 40.599-147.248 3.557-5.267 17.449-4.757 20.425-14.05 2.741-8.559-.738-17.749 3.886-25.559 6.187-10.45 14.857-18.612 22.887-26.143 17.858-16.748 37.573-4.01 58.295-4.01 21.708 0 42.311-11.733 60.831 6.444 7.97 7.822 15.553 16.918 22.675 26.925-11.501-20.569-24.755-39.073-39.297-53.344-18.52-18.176-39.123-6.443-60.831-6.443-20.722 0-40.437-12.738-58.295 4.01-51.673 48.46-87.797 150.79-87.797 212.999 0 36.188 12.232 69.409 32.63 95.471-10.233-20.708-16.008-44.181-16.008-69.052z" fill="#87eda8"/><path d="m185.13 355.714c0 9.704-8.649 17.663-6.978 26.885 7.025 38.751 28.155 72.597 57.885 96.046 49.712-24.185 84.145-76.564 84.145-137.295 0-38.049-13.517-91.105-35.836-137.667-54.804 18.143-96.364 65.311-106.408 123.269-1.531 8.844 7.192 19.481 7.192 28.762z" fill="#5ab161"/><ellipse cx="340.203" cy="361.174" fill="#ffe070" rx="135.797" ry="142.826"/><ellipse cx="340.203" cy="361.174" fill="#ff7f90" rx="108.421" ry="114.033"/><ellipse cx="340.203" cy="361.174" fill="#ff5872" rx="58.93" ry="77.847"/><g fill="#ad4968"><path d="m322.19 323c-2.152 0-4.196-.879-5.66-2.34-3.115-3.116-3.115-8.204 0-11.32 3.132-3.112 8.172-3.118 11.31 0 1.527 1.527 2.35 3.633 2.35 5.66 0 4.326-3.514 8-8 8z"/><path d="m358.89 322.63c-1.981 0-4.078-.779-5.65-2.351-2.751-2.75-3.071-7.015-1-10.09 2.745-4.159 8.73-4.8 12.31-1.22 1.407 1.407 2.34 3.431 2.34 5.66 0 4.402-3.591 8.001-8 8.001z"/><path d="m371.29 349.17c-6.261 0-10.236-7.006-6.65-12.45 2.874-4.258 8.791-4.729 12.31-1.21 1.574 1.617 2.34 3.603 2.34 5.65 0 4.472-3.649 8.01-8 8.01z"/><path d="m374.18 374.26c-4.406 0-8-3.563-8-8 0-5.146 4.755-8.82 9.56-7.84 4.146.809 7.15 4.863 6.28 9.41-.705 3.588-3.915 6.43-7.84 6.43z"/><path d="m366.09 399.06c-5.648 0-9.566-5.719-7.39-11.06 1.743-4.182 6.515-5.971 10.45-4.33 1.901.793 3.484 2.3 4.33 4.33 2.198 5.396-1.81 11.06-7.39 11.06z"/><path d="m350.5 420.399c-4.434 0-8-3.608-8-8 0-3.145 1.87-6.109 4.94-7.39 2.999-1.251 6.476-.502 8.72 1.73 1.423 1.42 2.34 3.464 2.34 5.659 0 4.409-3.568 8.001-8 8.001z"/><path d="m308.56 346.16c-3.693 0-7.09-2.602-7.84-6.431-.413-2.145.025-4.241 1.19-6.01 2.823-4.182 8.727-4.793 12.31-1.21 3.139 3.139 3.097 8.221 0 11.31-1.423 1.423-3.449 2.341-5.66 2.341z"/><path d="m306.67 370.26c-4.419 0-8-3.579-8-8 0-2.196.929-4.276 2.34-5.65 3.184-3.176 8.261-3.048 11.31 0 1.465 1.426 2.35 3.562 2.35 5.65 0 4.382-3.56 8-8 8z"/><path d="m310.56 394.81c-6.268 0-10.2-6.988-6.65-12.439 2.458-3.605 7.304-4.713 11.1-2.21.872.588 1.622 1.318 2.21 2.21 3.534 5.418-.338 12.439-6.66 12.439z"/><path d="m324.19 417.319c-4.441 0-8-3.603-8-7.989 0-5.177 4.773-8.826 9.56-7.851 4.36.86 7.178 5.163 6.28 9.41-.736 3.75-4.051 6.43-7.84 6.43z"/></g><ellipse cx="96.979" cy="232.857" fill="#87eda8" rx="8.476" ry="8.466"/><path d="m128.3 177.33c1.448 1.843-.37 5.681-4.06 8.573s-7.854 3.743-9.302 1.9.37-5.681 4.06-8.573c3.689-2.892 7.854-3.743 9.302-1.9z" fill="#87eda8"/><ellipse cx="165.102" cy="354.944" fill="#5ab161" rx="9.849" ry="8.651" transform="matrix(.108 -.994 .994 .108 -205.625 480.663)"/><path d="m91.439 24.716c-4.896 2.898-6.322 8.918-3.243 13.697 8.545 13.268 28.066 38.293 57.191 45.164 31.013 7.316 48.495-9.51 54.865-17.582 3.519-4.459 4.908-10.301 3.758-15.873-2.076-10.065-10.161-32.921-41.174-40.237-29.125-6.87-57.805 6.785-71.397 14.831z" fill="#69da61"/><path d="m169.745 64.736c-29.125-6.87-48.646-31.896-57.191-45.164-.897-1.392-1.4-2.89-1.558-4.384-7.984 3.103-14.727 6.668-19.557 9.528-4.896 2.898-6.322 8.918-3.243 13.697 8.545 13.268 28.066 38.293 57.191 45.164 31.013 7.316 48.495-9.51 54.865-17.582.596-.756 1.107-1.561 1.579-2.386-8.431 3.007-19.061 4.2-32.086 1.127z" fill="#5ab161"/></svg>